# xmcd CD database file
#
# Track frame offsets:
#	150
#	14928
#	29868
#	47913
#	61419
#	76080
#	90933
#	108915
#	123594
#	141015
#	159348
#	175635
#	193167
#	211449
#
# Disc length: 3056 seconds
#
# Revision: 1
# Processed by: cddbd v1.5.2PL0 Copyright (c) Steve Scherf et al.
# Submitted via: CDex 1.51
#
DISCID=c00bee0e
DTITLE=Leandro e Leonardo and João Paulo e Daniel - Frente a Frente com a Música Sertaneja
DYEAR=2003
DGENRE=Música Sertaneja
TTITLE0=Leandro and Leonardo-Mexe Mexe
TTITLE1=Leandro and Leonardo-entre Tapas e Beijos
TTITLE2=Leandro and Leonardo-Festa de Rodeio
TTITLE3=Leandro and Leonardo-Nãoi Aprendi a Dizer Adeus
TTITLE4=Leandro and Leonardo-Pense em Mim
TTITLE5=Leandro and Leonardo-Anarriê
TTITLE6=Leandro and Leonardo-Rumo a Goiânia
TTITLE7=João Paulo e Daniel-Eu Me Amarre
TTITLE8=João Paulo e Daniel-Hoje Eu Se
TTITLE9=João Paulo e Daniel-Minha Estrela Perdida
TTITLE10=João Paulo e Daniel-Menina Manhosa
TTITLE11=João Paulo e Daniel-Acabou
TTITLE12=João Paulo e Daniel-Ela Tem o Dom de Me Fazer Chorar
TTITLE13=João Paulo e Daniel-Gruda em Mim 
EXTD=Seleções - CD 4 YEAR: 2003
EXTT0=
EXTT1=
EXTT2=
EXTT3=
EXTT4=
EXTT5=
EXTT6=
EXTT7=
EXTT8=
EXTT9=
EXTT10=
EXTT11=
EXTT12=
EXTT13=
PLAYORDER=
